<svg width="59" height="59" viewBox="0 0 59 59" fill="none" xmlns="http://www.w3.org/2000/svg">
<circle opacity="0.6" cx="29.4999" cy="29.5" r="28.727" stroke="#FCFCFC" stroke-width="1.54607"/>
<path opacity="0.8" d="M28.7211 37.845C28.4878 37.845 28.3011 37.775 28.1611 37.635C28.0211 37.495 27.9511 37.3083 27.9511 37.075V29.41H20.3561C20.1228 29.41 19.9361 29.34 19.7961 29.2C19.6561 29.06 19.5861 28.8733 19.5861 28.64V28.15C19.5861 27.9167 19.6561 27.73 19.7961 27.59C19.9361 27.45 20.1228 27.38 20.3561 27.38H27.9511V19.925C27.9511 19.6917 28.0211 19.505 28.1611 19.365C28.3011 19.225 28.4878 19.155 28.7211 19.155H29.2461C29.4794 19.155 29.6661 19.225 29.8061 19.365C29.9461 19.505 30.0161 19.6917 30.0161 19.925V27.38H37.6461C37.8794 27.38 38.0661 27.45 38.2061 27.59C38.3461 27.73 38.4161 27.9167 38.4161 28.15V28.64C38.4161 28.8733 38.3461 29.06 38.2061 29.2C38.0661 29.34 37.8794 29.41 37.6461 29.41H30.0161V37.075C30.0161 37.3083 29.9461 37.495 29.8061 37.635C29.6661 37.775 29.4794 37.845 29.2461 37.845H28.7211Z" fill="#FCFCFC"/>
</svg>
